<svg style="position: absolute; width: 0; height: 0;" width="0" height="0" version="1.1" xmlns="http://www.w3.org/2000/svg" xmlns:xlink="http://www.w3.org/1999/xlink"><defs><symbol id="twitter" viewBox="0 -212 1024 1024"><path d="M959 108.7 q-5 1 -38 10.5 q-33 9.5 -54 9.5 q53 -36 76 -98 q-60 26 -65 28 q-44 20 -85 -10 q-96 -71 -203 -6 q-101 61 -88 181 q1 14 -3.5 17.5 q-4.5 3.5 -17.5 1.5 q-140 -16 -251 -91 q-52 -36 -112 -102 q-35 60 -21 132 q12 63 73 115 q-13 0 -25.5 -2.5 q-12.5 -2.5 -30 -8.5 q-17.5 -6 -23.5 -8 q6 133 138 186 q-29 4 -52 2 q-13 -1 -15.5 4 q-2.5 5 3.5 15 q41 85 132 106 q3 0 29 6 q-26 23 -73 44 q-84 39 -189 32 q0 6 8 10 q250 139 496 25 q290 -135 308 -480 q1 -29 20 -45 q49 -40 65 -73 l-2 -1 Z"></path></symbol><symbol id="facebook" viewBox="0 -212 1024 1024"><path d="M624 -66 q-12 0 -37 0.5 q-25 0.5 -34 2 q-9 1.5 -26.5 4 q-17.5 2.5 -25.5 6 q-8 3.5 -20.5 9 q-12.5 5.5 -21.5 13 q-9 7.5 -19 17.5 q-17 18 -28.5 43 q-11.5 25 -17 62.5 q-5.5 37.5 -7.5 63 q-2 25.5 -4 74.5 l0 15 l-83 0 l0 142 l84 0 l0 448 l196 0 l0 -450 l113 0 q6 -33 29 -140 l-141 0 q0 -14 -1 -48 q-1 -34 0 -55.5 q1 -21.5 8 -31.5 q12 -18 48 -25 q36 -7 54.5 -6.5 q18.5 0.5 30.5 1.5 l0 -145 l-97 0 Z"></path></symbol><symbol id="clock" viewBox="0 -212 1024 1024"><path d="M512 0 q-159 0 -271.5 112.5 q-112.5 112.5 -112.5 271.5 q0 159 112.5 271.5 q112.5 112.5 271.5 112.5 q159 0 271.5 -112.5 q112.5 -112.5 112.5 -271.5 q0 -159 -112.5 -271.5 q-112.5 -112.5 -271.5 -112.5 ZM512 -128 q139 0 257 68.5 q118 68.5 186.5 186.5 q68.5 118 68.5 257 q0 139 -68.5 257 q-68.5 118 -186.5 186.5 q-118 68.5 -257 68.5 q-139 0 -257 -68.5 q-118 -68.5 -186.5 -186.5 q-68.5 -118 -68.5 -257 q0 -139 68.5 -257 q68.5 -118 186.5 -186.5 q118 -68.5 257 -68.5 ZM595 557 l-125 -125 q-23 -20 -23 -48 l0 -256 l129 0 l0 229 l110 109 l-91 91 Z"></path></symbol><symbol id="mail" viewBox="0 -212 1024 1024"><path d="M515 389 l464 -230 l0 485 l-928 0 l0 -485 l464 230 ZM979 -44 l0 129 l-464 230 l-464 -230 l0 -129 l928 0 Z"></path></symbol><symbol id="link" viewBox="0 -212 1024 1024"><path d="M969 207 q57 -57 57 -136.5 q0 -79.5 -57 -135.5 l-90 -90 q-56 -57 -136 -57 q-80 0 -136 57 l-94 94 q-44 44 -53.5 104.5 q-9.5 60.5 16.5 113.5 l218 -218 q19 -19 45 -19 q26 0 45 19 l91 91 q18 18 18 44.5 q0 26.5 -18 45.5 l-218 218 q53 26 113.5 16.5 q60.5 -9.5 104.5 -53.5 l94 -94 ZM332 482 q18 19 45 19 q27 0 45 -19 l272 -271 q19 -19 19 -45.5 q0 -26.5 -19 -45.5 q-19 -19 -45.5 -19 q-26.5 0 -45.5 19 l-271 272 q-19 18 -19 44.5 q0 26.5 19 45.5 ZM151 573 q-19 -19 -19 -45.5 q0 -26.5 19 -45.5 l218 -218 q-53 -26 -114 -16 q-61 10 -104 53 l-95 87 q-56 56 -56 135.5 q0 79.5 56 135.5 l99 99 q56 56 135.5 56 q79.5 0 135.5 -56 l87 -95 q43 -43 53 -104 q10 -61 -16 -114 l-218 218 q-19 19 -45.5 19 q-26.5 0 -45.5 -19 l-90 -90 Z"></path></symbol><symbol id="search" viewBox="0 -212 1024 1024"><path d="M996 784 q28 -28 28 -68 q0 -40 -28 -68 l-170 -170 q72 -111 72 -241 q0 -92 -36 -175 q-36 -83 -96 -143 q-60 -60 -143 -95.5 q-83 -35.5 -174 -35.5 q-91 0 -174.5 35.5 q-83.5 35.5 -143.5 95.5 q-60 60 -95.5 143 q-35.5 83 -35.5 174.5 q0 91.5 35.5 174.5 q35.5 83 95.5 143 q60 60 143 96 q83 36 175 36 q130 0 241 -72 l170 170 q28 28 68 28 q40 0 68 -28 ZM449 -84 q87 0 161 43 q74 43 116.5 117 q42.5 74 42.5 161 q0 87 -42.5 161 q-42.5 74 -116.5 116.5 q-74 42.5 -161 42.5 q-87 0 -161 -42.5 q-74 -42.5 -117 -116.5 q-43 -74 -43 -161 q0 -87 43 -161 q43 -74 117 -117 q74 -43 161 -43 Z"></path></symbol><symbol id="smile" viewBox="0 -212 1024 1024"><path d="M511 832 q91 0 174 -35.5 q83 -35.5 143 -95.5 q60 -60 95.5 -143 q35.5 -83 35.5 -174 q0 -91 -35.5 -174 q-35.5 -83 -95.5 -143 q-60 -60 -143 -95.5 q-83 -35.5 -174 -35.5 q-91 0 -174 35.5 q-83 35.5 -143 95.5 q-60 60 -95.5 143 q-35.5 83 -35.5 174 q0 91 35.5 174 q35.5 83 95.5 143 q60 60 143 95.5 q83 35.5 174 35.5 ZM511 0 q104 0 192.5 51.5 q88.5 51.5 140 140 q51.5 88.5 51.5 192.5 q0 104 -51.5 192.5 q-51.5 88.5 -140 140 q-88.5 51.5 -192.5 51.5 q-104 0 -192.5 -51.5 q-88.5 -51.5 -140 -140 q-51.5 -88.5 -51.5 -192.5 q0 -104 51.5 -192.5 q51.5 -88.5 140 -140 q88.5 -51.5 192.5 -51.5 ZM512 645 q68 0 127.5 -29.5 q59.5 -29.5 100.5 -82.5 q9 -11 7 -24 q-2 -13 -12.5 -21 q-10.5 -8 -23.5 -6.5 q-13 1.5 -21 12.5 q-32 42 -78.5 64.5 q-46.5 22.5 -99.5 22.5 q-52 0 -98 -22.5 q-46 -22.5 -79 -63.5 q-8 -10 -21 -11.5 q-13 -1.5 -23.5 6.5 q-10.5 8 -12 21 q-1.5 13 6.5 24 q41 52 100.5 81 q59.5 29 126.5 29 ZM368 387 q20 0 34 -14 q14 -14 14 -34 l0 -64 q0 -20 -14 -34 q-14 -14 -34 -14 q-20 0 -34 14 q-14 14 -14 34 l0 64 q0 20 14 34 q14 14 34 14 ZM656 387 q20 0 34 -14 q14 -14 14 -34 l0 -64 q0 -20 -14 -34 q-14 -14 -34 -14 q-20 0 -34 14 q-14 14 -14 34 l0 64 q0 20 14 34 q14 14 34 14 Z"></path></symbol><symbol id="roundrightfill" viewBox="0 -212 1024 1024"><path d="M512 -64 q185 0 316.5 131.5 q131.5 131.5 131.5 316.5 q0 185 -131.5 316.5 q-131.5 131.5 -316.5 131.5 q-185 0 -316.5 -131.5 q-131.5 -131.5 -131.5 -316.5 q0 -185 131.5 -316.5 q131.5 -131.5 316.5 -131.5 ZM662 408 q15 -15 7 -35 q-3 -6 -7 -10 l-159 -160 q-9 -9 -22.5 -9 q-13.5 0 -23 9 q-9.5 9 -9.5 22.5 q0 13.5 10 22.5 l136 137 l-137 136 q-10 9 -10 22.5 q0 13.5 9.5 23 q9.5 9.5 22.5 9.5 q13 0 23 -10 l160 -158 Z"></path></symbol><symbol id="list" viewBox="0 -212 1024 1024"><path d="M896 128 q13 0 22.5 -9.5 q9.5 -9.5 9.5 -22.5 q0 -13 -9.5 -22.5 q-9.5 -9.5 -22.5 -9.5 l-288 0 q-13 0 -22.5 9.5 q-9.5 9.5 -9.5 22.5 q0 13 9.5 22.5 q9.5 9.5 22.5 9.5 l288 0 ZM896 288 q13 0 22.5 -9.5 q9.5 -9.5 9.5 -22.5 q0 -13 -9.5 -22.5 q-9.5 -9.5 -22.5 -9.5 l-288 0 q-13 0 -22.5 9.5 q-9.5 9.5 -9.5 22.5 q0 13 9.5 22.5 q9.5 9.5 22.5 9.5 l288 0 ZM896 544 q13 0 22.5 -9.5 q9.5 -9.5 9.5 -22.5 q0 -13 -9.5 -22.5 q-9.5 -9.5 -22.5 -9.5 l-288 0 q-13 0 -22.5 9.5 q-9.5 9.5 -9.5 22.5 q0 13 9.5 22.5 q9.5 9.5 22.5 9.5 l288 0 ZM896 704 q13 0 22.5 -9.5 q9.5 -9.5 9.5 -22.5 q0 -13 -9.5 -22.5 q-9.5 -9.5 -22.5 -9.5 l-288 0 q-13 0 -22.5 9.5 q-9.5 9.5 -9.5 22.5 q0 13 9.5 22.5 q9.5 9.5 22.5 9.5 l288 0 ZM384 352 q40 0 68 -28 q28 -28 28 -68 l0 -192 q0 -40 -28 -68 q-28 -28 -68 -28 l-192 0 q-40 0 -68 28 q-28 28 -28 68 l0 192 q0 40 28 68 q28 28 68 28 l192 0 ZM384 32 q13 0 22.5 9.5 q9.5 9.5 9.5 22.5 l0 192 q0 13 -9.5 22.5 q-9.5 9.5 -22.5 9.5 l-192 0 q-13 0 -22.5 -9.5 q-9.5 -9.5 -9.5 -22.5 l0 -192 q0 -13 9.5 -22.5 q9.5 -9.5 22.5 -9.5 l192 0 ZM384 800 q40 0 68 -28 q28 -28 28 -68 l0 -192 q0 -40 -28 -68 q-28 -28 -68 -28 l-192 0 q-40 0 -68 28 q-28 28 -28 68 l0 192 q0 40 28 68 q28 28 68 28 l192 0 ZM384 480 q13 0 22.5 9.5 q9.5 9.5 9.5 22.5 l0 192 q0 13 -9.5 22.5 q-9.5 9.5 -22.5 9.5 l-192 0 q-13 0 -22.5 -9.5 q-9.5 -9.5 -9.5 -22.5 l0 -192 q0 -13 9.5 -22.5 q9.5 -9.5 22.5 -9.5 l192 0 Z"></path></symbol><symbol id="book" viewBox="0 -212 1024 1024"><path d="M907 598 q11 0 19 -8 q8 -8 8 -19 l0 -745 q0 -11 -8 -18.5 q-8 -7.5 -19 -7.5 l-618 0 l0 798 l618 0 ZM289 800 l0 -53 l592 0 l0 -73 q0 -10 7.5 -18 q7.5 -8 18.5 -8 q11 0 19 8 q8 8 8 18 l0 100 q0 11 -8 18.5 q-8 7.5 -19 7.5 l-618 0 ZM236 747 l0 53 l-26 0 q-50 -4 -85 -40.5 q-35 -36.5 -35 -86.5 q0 -1 0.5 -2.5 q0.5 -1.5 0.5 -2.5 q-1 -83 0 -738 l0 -3 q0 -52 37 -89.5 q37 -37.5 90 -37.5 l18 0 l0 798 l-18 0 q-30 0 -51.5 20.5 q-21.5 20.5 -22.5 49.5 l0 7 l-1 1 q2 30 23.5 50.5 q21.5 20.5 51.5 20.5 l18 0 Z"></path></symbol><symbol id="home" viewBox="0 -212 1024 1024"><path d="M982 309 q10 9 12 22 q2 13 -7 23 q-9 13 -25 13 q-11 0 -20 -7 l-14 -12 l0 389 q0 43 -23 69.5 q-23 26.5 -61 26.5 l-640 0 q-40 0 -74 -28 q-34 -28 -34 -68 l0 -388 l-13 11 q-11 8 -24 6.5 q-13 -1.5 -21 -12 q-8 -10.5 -6.5 -23.5 q1.5 -13 11.5 -21 l406 -321 q26 -21 62 -21 q36 0 62 21 l409 320 ZM608 590 q0 -31 -25 -54 q-25 -23 -71 -23 q-46 0 -71 23 q-25 23 -25 54 l0 179 l192 0 l0 -179 Z"></path></symbol><symbol id="share" viewBox="0 -212 1024 1024"><path d="M864 492 q66 0 113 47 q47 47 47 113 q0 66 -47 113 q-47 47 -113 47 q-66 0 -113 -47 q-47 -47 -47 -113 q0 -13 2 -25 l-431 -216 q-47 49 -115 49 q-66 0 -113 -47 q-47 -47 -47 -113 q0 -66 47 -113 q47 -47 113 -47 q68 0 115 49 l431 -216 q-2 -12 -2 -25 q0 -66 47 -113 q47 -47 113 -47 q66 0 113 47 q47 47 47 113 q0 66 -47 113 q-47 47 -113 47 q-68 0 -115 -49 l-431 216 q2 12 2 25 q0 13 -2 25 l431 216 q47 -49 115 -49 Z"></path></symbol><symbol id="back" viewBox="0 -212 1024 1024"><path d="M321 352.25 q18 0 32 -12 l327 -267 q17 -14 19 -35 q2 -21 -11.5 -38 q-13.5 -17 -35 -19 q-21.5 -2 -37.5 12 l-327 267 q-17 14 -19 35 q-2 21 12 38 q15 19 40 19 ZM647 619.25 q25 0 40 -19 q14 -17 12 -38 q-2 -21 -19 -35 l-327 -267 q-16 -14 -37.5 -11.5 q-21.5 2.5 -35 19 q-13.5 16.5 -11.5 37.5 q2 21 19 35 l327 267 q14 12 32 12 Z"></path></symbol><symbol id="qq" viewBox="0 -212 1024 1024"><path d="M188 262 l-11 10 l-14 12 l-5 5 l-3 4 l-9 8 l-7 9 l-7 7 l-7 11 l-7 10 l-7 11 l-6 10 l-4 10 l-6 10 l-3 10 l-4 10 l-6 20 l-3 8 l-1 10 l-2 9 l-1 8 l-1 17 l0 22 l1 7 l2 11 l1 5 l1 6 l4 8 l2 6 l5 5 l2 0 l6 -1 l7 -2 l6 -2 l6 -4 l6 -3 l15 -15 l4 -6 l4 -5 l4 -4 l2 -5 l5 -8 l1 -3 l3 -6 l2 -2 l1 1 l2 1 l3 11 l2 9 l4 9 l4 8 l3 9 l5 7 l3 8 l4 7 l5 6 l3 6 l10 10 l8 10 l8 8 l14 12 l10 8 l4 2 l1 2 l-1 2 l-2 0 l-8 1 l-18 3 l-6 2 l-5 1 l-5 3 l-3 2 l-5 1 l-3 3 l-6 4 l-5 5 l-1 3 l-2 2 l-3 5 l-1 5 l-2 4 l0 12 l-1 4 l0 3 l-1 4 l0 3 l1 4 l4 12 l6 9 l3 3 l3 2 l6 5 l7 4 l8 4 l8 3 l9 4 l10 2 l10 3 l11 2 l10 2 l11 1 l11 2 l23 2 l22 1 l41 0 l10 -1 l9 -1 l8 0 l7 -1 l13 -2 l9 -3 l8 -2 l16 -6 l14 -6 l11 -6 l10 -5 l7 -5 l6 -5 l8 1 l7 1 l13 1 l15 0 l4 2 l7 2 l7 3 l13 4 l14 5 l14 3 l13 3 l14 4 l14 2 l14 1 l14 2 l12 1 l14 1 l38 0 l12 -2 l12 0 l12 -2 l10 -2 l11 -2 l10 -3 l4 -1 l5 -2 l9 -3 l8 -3 l14 -8 l6 -5 l3 -2 l3 -3 l3 -5 l4 -5 l2 -3 l0 -2 l2 -3 l1 -3 l0 -3 l1 -3 l-1 -5 l-1 -4 l-2 -4 l-1 -4 l-2 -4 l-3 -5 l-3 -3 l-4 -3 l-8 -7 l-10 -7 l-9 -5 l-9 -6 l-23 -10 l-5 -3 l-1 -2 l-1 -1 l15 -15 l4 -5 l7 -11 l7 -10 l6 -10 l6 -9 l7 -18 l6 -16 l4 -10 l2 -4 l2 -3 l2 -2 l2 1 l5 11 l5 10 l8 12 l3 6 l5 6 l4 4 l2 3 l3 2 l2 2 l2 1 l5 2 l2 1 l4 0 l2 -1 l3 -1 l6 -4 l3 -3 l2 -3 l3 -3 l4 -8 l3 -4 l1 -5 l3 -10 l2 -11 l2 -12 l1 -7 l0 -21 l-2 -14 l-2 -16 l-3 -16 l-2 -8 l-3 -9 l-3 -8 l-6 -18 l-4 -8 l-7 -15 l-6 -13 l-12 -22 l-6 -9 l-4 -9 l-10 -14 l-12 -17 l-2 -5 l-1 -1 l0 -2 l2 -6 l2 -5 l3 -11 l1 -5 l0 -6 l1 -4 l0 -5 l-1 -5 l-1 -4 l-1 -9 l-3 -8 l-2 -8 l-3 -7 l-4 -7 l-3 -5 l-3 -6 l-5 -8 l-2 -3 l0 -3 l-3 -16 l-1 -10 l-4 -26 l-5 -16 l-6 -24 l-6 -18 l-4 -9 l-8 -17 l-4 -8 l-6 -10 l-5 -8 l-5 -9 l-7 -8 l-6 -9 l-8 -8 l-7 -8 l-8 -7 l-9 -8 l-5 -3 l-4 -4 l-10 -6 l-11 -8 l-24 -12 l-13 -6 l-12 -5 l-13 -4 l-14 -4 l-39 -9 l-14 -2 l-13 -2 l-14 -1 l-40 0 l-14 1 l-13 1 l-26 4 l-13 3 l-12 2 l-12 4 l-11 4 l-12 4 l-22 10 l-9 5 l-20 12 l-9 7 l-7 7 l-12 10 l-9 10 l-10 10 l-16 20 l-14 20 l-3 4 l-9 15 l-6 9 l-8 18 l-4 8 l-3 8 l-3 9 l-3 8 l-4 14 l-3 14 l-1 11 l-2 10 l0 19 l-3 3 l-2 4 l-2 3 l-2 4 l-2 9 l-2 7 l-1 7 l-1 5 l0 6 l-5 7 l-4 8 l-3 8 l-2 6 l-2 7 l-1 6 l0 15 l1 4 l1 6 l2 6 l-12 8 Z"></path></symbol><symbol id="weibo" viewBox="0 -212 1024 1024"><path d="M746 282.06 q16 1 38 8.5 q22 7.5 44.5 20 q22.5 12.5 38 39.5 q15.5 27 15.5 64 q0 30 -13.5 65.5 q-13.5 35.5 -48 75 q-34.5 39.5 -85 71.5 q-50.5 32 -132.5 53 q-82 21 -183 21 q-100 0 -180 -25 q-80 -25 -126.5 -64 q-46.5 -39 -71 -84 q-24.5 -45 -24.5 -89 q0 -39 19 -86.5 q19 -47.5 50.5 -93 q31.5 -45.5 72.5 -89.5 q41 -44 86 -76.5 q45 -32.5 90 -54.5 q45 -22 84 -22.5 q39 -0.5 69 18.5 q29 21 30 65 q1 44 -33 73 q138 -45 205 -33 q83 15 54 107 l-15 35 l16 1 ZM432 650.06 q123 -11 204.5 -78 q81.5 -67 73.5 -150.5 q-8 -83.5 -100.5 -134.5 q-92.5 -51 -215.5 -39.5 q-123 11.5 -204 78.5 q-81 67 -73.5 150.5 q7.5 83.5 100 134.5 q92.5 51 215.5 39 ZM374 328.06 q67 -11 120.5 21 q53.5 32 63.5 89 q10 57 -30.5 105.5 q-40.5 48.5 -107 60 q-66.5 11.5 -120.5 -21 q-54 -32.5 -63.5 -89.5 q-9.5 -57 30.5 -105.5 q40 -48.5 107 -59.5 ZM359 545.06 q21 -6 32.5 -24 q11.5 -18 6 -38 q-5.5 -20 -24.5 -29.5 q-19 -9.5 -40.5 -3.5 q-21.5 6 -33 24 q-11.5 18 -6 37.5 q5.5 19.5 24.5 29.5 q19 10 41 4 ZM433 460.06 q11 0 19 -7.5 q8 -7.5 8 -18.5 q0 -11 -8 -19 q-8 -8 -19 -8 q-11 0 -19 8 q-8 8 -8 19 q0 11 8 18.5 q8 7.5 19 7.5 ZM951 -2.94 q41 52 51.5 121 q10.5 69 -14.5 129 q-8 21 -32 21 q-6 0 -13 -2 q-13 -6 -18.5 -19 q-5.5 -13 -0.5 -26 q18 -43 10 -93 q-8 -50 -38 -89 q-67 -85 -201 -66 q-15 2 -26.5 -6.5 q-11.5 -8.5 -13.5 -22.5 q-2 -14 7 -25.5 q9 -11.5 23 -13.5 q84 -12 153 11.5 q69 23.5 113 80.5 ZM718 31.06 q89 -13 136 48 q22 27 27 62.5 q5 35.5 -7 67.5 q-9 21 -33 21 q-6 0 -13 -2 q-13 -6 -18.5 -19 q-5.5 -13 -0.5 -26 q6 -15 3.5 -32 q-2.5 -17 -12.5 -30 q-23 -29 -72 -22 q-14 2 -25.5 -6.5 q-11.5 -8.5 -13.5 -22.5 q-2 -14 6.5 -25.5 q8.5 -11.5 22.5 -13.5 Z"></path></symbol><symbol id="segmentfault" viewBox="0 -212 1024 1024"><path d="M73 752 l0 14 q92 70 211 70 q103 0 165.5 -45 q62.5 -45 62.5 -135 q0 -67 -35 -103 q-35 -36 -109 -64 q-11 -4 -30.5 -11 q-19.5 -7 -29 -10.5 q-9.5 -3.5 -22.5 -10 q-13 -6.5 -19 -12.5 q-6 -6 -11 -15 q-5 -9 -5 -20 q0 -25 19 -38.5 q19 -13.5 52 -13.5 q72 0 127 41 l48 -93 l0 -14 q-75 -48 -188 -48 q-97 0 -158 43 q-61 43 -61 130 q0 64 34.5 100 q34.5 36 99.5 64 q14 6 37 14.5 q23 8.5 35 14 q12 5.5 25.5 14 q13.5 8.5 19.5 19 q6 10.5 6 24.5 q0 31 -24 46 q-24 15 -56 15 q-73 0 -144 -64 l-50 88 ZM826 835 q0 -338 -3 -450 q36 1 114 1 l1 -121 q-78 0 -113 1 l-1 -39 q-1 -38 -1 -51 q0 -45 14 -62.5 q14 -17.5 41 -17.5 q31 0 60 17 l35 -96 l0 -18 q-63 -26 -135 -26 q-83 0 -132.5 44.5 q-49.5 44.5 -49.5 140.5 q0 2 1 53.5 q1 51.5 1 54.5 q-31 -1 -73 -1 l-1 121 q43 0 75 -1 q-3 337 -3 450 l170 0 Z"></path></symbol><symbol id="sort" viewBox="0 -212 1024 1024"><path d="M384 192 q-13 0 -22.5 -9.5 q-9.5 -9.5 -9.5 -22.5 q0 -13 9.5 -22.5 q9.5 -9.5 22.5 -9.5 l512 0 q13 0 22.5 9.5 q9.5 9.5 9.5 22.5 q0 13 -9.5 22.5 q-9.5 9.5 -22.5 9.5 l-512 0 ZM896 352 q13 0 22.5 9.5 q9.5 9.5 9.5 22.5 q0 13 -9.5 22.5 q-9.5 9.5 -22.5 9.5 l-512 0 q-13 0 -22.5 -9.5 q-9.5 -9.5 -9.5 -22.5 q0 -13 9.5 -22.5 q9.5 -9.5 22.5 -9.5 l512 0 ZM896 576 q13 0 22.5 9.5 q9.5 9.5 9.5 22.5 q0 13 -9.5 22.5 q-9.5 9.5 -22.5 9.5 l-512 0 q-13 0 -22.5 -9.5 q-9.5 -9.5 -9.5 -22.5 q0 -13 9.5 -22.5 q9.5 -9.5 22.5 -9.5 l512 0 ZM128 160 q0 26 19 45 q19 19 45 19 q26 0 45 -19 q19 -19 19 -45 q0 -26 -19 -45 q-19 -19 -45 -19 q-26 0 -45 19 q-19 19 -19 45 ZM128 384 q0 26 19 45 q19 19 45 19 q26 0 45 -19 q19 -19 19 -45 q0 -26 -19 -45 q-19 -19 -45 -19 q-26 0 -45 19 q-19 19 -19 45 ZM128 608 q0 26 19 45 q19 19 45 19 q26 0 45 -19 q19 -19 19 -45 q0 -26 -19 -45 q-19 -19 -45 -19 q-26 0 -45 19 q-19 19 -19 45 Z"></path></symbol><symbol id="jianshu" viewBox="0 -212 1024 1024"><path d="M282 22 q-53 143 -175 297 q0 15 7 7 q97 -82 183 -161 l60 -3 q15 18 18 78 q0 18 29 15 q29 -7 32 -36 q0 -32 -46 -61 l157 -7 q4 0 7 -4 l-3 -7 l-65 -53 l-46 50 l-122 7 l14 -18 q22 -21 40 -29 q11 -7 3 -14 l-93 -61 ZM304 391 l3 -7 q-3 -4 -7 -4 l-82 -32 l4 129 l0 143 l-8 261 q4 11 18 0 q50 -54 54 -104 l7 -354 l11 -32 ZM325 251 q-10 -3 -7 7 q22 18 50 97 q11 21 29 11 q25 -15 32 -58 q0 -25 -104 -57 ZM586 670 q4 7 11 21 q11 15 15 25 q10 15 28 0 q39 -50 43 -86 l-4 -153 l22 -33 q0 -7 -4 -7 l-71 -39 l-29 39 l-164 7 l-50 -32 q-6 -3 -7.5 -2.5 q-1.5 0.5 -0.5 6.5 l0 307 q4 18 18 8 q29 -22 40 -54 l153 -7 ZM601 655 l-168 8 l-4 -101 l143 -7 q11 0 11 -7 q0 -7 -7 -7 l-147 7 l0 -89 l172 -4 l0 200 ZM758 334 l4 422 q3 19 -14 28 q-17 9 -54 7 q-4 0 -4 4 q0 4 4 7 q32 25 36 75 q-4 7 -0.5 11 q3.5 4 10.5 0 q115 -75 108 -175 l-4 -143 l-4 -204 l29 -36 q7 -4 4 -7 q-4 0 -4 -4 l-75 -46 l-36 39 l-279 14 l25 25 q43 -10 111 -10 l143 -7 ZM615 15 q-32 107 -104 258 q-3 7 0.5 7 q3.5 0 10.5 -4 q32 -32 75 -86 q22 -25 32 -35 l58 -4 q21 29 25 104 q0 21 28 18 q36 -18 43 -50 q0 -33 -71 -72 l196 -11 q8 0 0 -7 l-64 -53 l-46 50 l-154 7 q7 -7 14 -18 q4 -7 7 -11 q14 -21 36 -28 q11 -8 4 -11 l-90 -54 Z"></path></symbol><symbol id="circle-left" viewBox="0 -212 1024 1024"><path d="M512 832 q185 0 316.5 -131.5 q131.5 -131.5 131.5 -316.5 q0 -185 -131.5 -316.5 q-131.5 -131.5 -316.5 -131.5 q-185 0 -316.5 131.5 q-131.5 131.5 -131.5 316.5 q0 185 131.5 316.5 q131.5 131.5 316.5 131.5 ZM512 0 q159 0 271.5 112.5 q112.5 112.5 112.5 271.5 q0 159 -112.5 271.5 q-112.5 112.5 -271.5 112.5 q-159 0 -271.5 -112.5 q-112.5 -112.5 -112.5 -271.5 q0 -159 112.5 -271.5 q112.5 -112.5 271.5 -112.5 ZM290 396 q-8 -19 7 -34 l161 -159 q9 -9 22 -9 q14 0 23 9.5 q9 9.5 9 22.5 q0 13 -9 23 l-106 105 l306 0 q14 0 23 9 q9 9 9 22.5 q0 13.5 -9 23 q-9 9.5 -23 9.5 l-305 0 l104 103 q9 10 9 23 q0 13 -9.5 22.5 q-9.5 9.5 -22.5 9.5 q-13 0 -23 -10 l-159 -159 q-4 -4 -6 -10 l-1 -1 Z"></path></symbol><symbol id="circle-right" viewBox="0 -212 1024 1024"><path d="M512 832 q185 0 316.5 -131.5 q131.5 -131.5 131.5 -316.5 q0 -185 -131.5 -316.5 q-131.5 -131.5 -316.5 -131.5 q-185 0 -316.5 131.5 q-131.5 131.5 -131.5 316.5 q0 185 131.5 316.5 q131.5 131.5 316.5 131.5 ZM512 0 q159 0 271.5 112.5 q112.5 112.5 112.5 271.5 q0 159 -112.5 271.5 q-112.5 112.5 -271.5 112.5 q-159 0 -271.5 -112.5 q-112.5 -112.5 -112.5 -271.5 q0 -159 112.5 -271.5 q112.5 -112.5 271.5 -112.5 ZM733 373 q8 20 -7 35 l-160 158 q-10 10 -23 10 q-13 0 -22.5 -9.5 q-9.5 -9.5 -9.5 -23 q0 -13.5 10 -22.5 l106 -105 l-307 0 q-13 0 -22.5 -9.5 q-9.5 -9.5 -9.5 -22.5 q0 -13 9.5 -22.5 q9.5 -9.5 22.5 -9.5 l305 0 l-103 -104 q-10 -9 -10 -22.5 q0 -13.5 9.5 -22.5 q9.5 -9 23 -9 q13.5 0 22.5 9 l159 160 q4 4 7 10 Z"></path></symbol><symbol id="loading" viewBox="0 -212 1024 1024"><path d="M384 64 q0 53 37.5 90.5 q37.5 37.5 90.5 37.5 q53 0 90.5 -37.5 q37.5 -37.5 37.5 -90.5 q0 -53 -37.5 -90.5 q-37.5 -37.5 -90.5 -37.5 q-53 0 -90.5 37.5 q-37.5 37.5 -37.5 90.5 ZM656 176 q0 53 37.5 90.5 q37.5 37.5 90.5 37.5 q53 0 90.5 -37.5 q37.5 -37.5 37.5 -90.5 q0 -53 -37.5 -90.5 q-37.5 -37.5 -90.5 -37.5 q-53 0 -90.5 37.5 q-37.5 37.5 -37.5 90.5 ZM832 448 q0 27 18.5 45.5 q18.5 18.5 45.5 18.5 q27 0 45.5 -18.5 q18.5 -18.5 18.5 -45.5 q0 -27 -18.5 -45.5 q-18.5 -18.5 -45.5 -18.5 q-27 0 -45.5 18.5 q-18.5 18.5 -18.5 45.5 ZM720 719 q0 27 18.5 46 q18.5 19 45 19 q26.5 0 45.5 -19 q19 -19 19 -45.5 q0 -26.5 -19 -45 q-19 -18.5 -45.5 -18.5 q-26.5 0 -45 18.5 q-18.5 18.5 -18.5 44.5 ZM448 832 q0 27 18.5 45.5 q18.5 18.5 45.5 18.5 q27 0 45.5 -18.5 q18.5 -18.5 18.5 -45.5 q0 -27 -18.5 -45.5 q-18.5 -18.5 -45.5 -18.5 q-27 0 -45.5 18.5 q-18.5 18.5 -18.5 45.5 ZM176 720 q0 26 19 45 q19 19 45.5 19 q26.5 0 45 -19 q18.5 -19 18.5 -45 q0 -27 -18.5 -45.5 q-18.5 -18.5 -45 -18.5 q-26.5 0 -45.5 18.5 q-19 18.5 -19 45.5 ZM144 176 q0 40 28.5 68 q28.5 28 68 28 q39.5 0 67.5 -28 q28 -28 28 -68 q0 -39 -28 -67.5 q-28 -28.5 -67.5 -28.5 q-39.5 0 -68 28.5 q-28.5 28.5 -28.5 67.5 ZM56 448 q0 30 21 51 q21 21 51 21 q30 0 51 -21 q21 -21 21 -51 q0 -30 -21 -51 q-21 -21 -51 -21 q-30 0 -51 21 q-21 21 -21 51 Z"></path></symbol><symbol id="acfun" viewBox="0 -212 1024 1024"><path d="M1092 731 l-257 154 l-107 -205 l-414 31 l-53 185 l-261 -165 l521 -859 l571 859 ZM624 514 l-111 -217 l-98 217 l209 0 Z"></path></symbol><symbol id="close" viewBox="0 -212 1024 1024"><path d="M833 703 l82 -82 l-320 -321 l320 -321 l-82 -82 l-321 320 l-321 -320 l-82 82 l320 321 l-320 321 l82 82 l321 -320 l321 320 Z"></path></symbol><symbol id="tumblr" viewBox="0 -212 1024 1024"><path d="M843 -196 q68 0 116.5 48.5 q48.5 48.5 48.5 116.5 l0 662 q0 68 -48.5 116.5 q-48.5 48.5 -116.5 48.5 l-662 0 q-68 0 -116.5 -48.5 q-48.5 -48.5 -48.5 -116.5 l0 -662 q0 -68 48.5 -116.5 q48.5 -48.5 116.5 -48.5 l662 0 ZM725 495 q-52 34 -104 34 q-29 0 -52 -14 q-19 -11 -26 -29 q-3 -10 -3 -74 l0 -176 l158 0 l0 -122 l-158 0 l0 -158 l-98 0 q-6 53 -23.5 87 q-17.5 34 -46.5 59 q-24 20 -77 37 l0 97 l93 0 l0 240 q0 47 10 72 q10 25 35.5 46.5 q25.5 21.5 61.5 33.5 q36 12 73 12 q42 0 77 -8 q36 -8 80 -29 l0 -108 Z"></path></symbol><symbol id="calendar" viewBox="0 -212 1024 1024"><path d="M870 5 q37 0 63.5 26.5 q26.5 26.5 26.5 63.5 l0 196 l-896 0 l0 -196 q0 -37 26.5 -63.5 q26.5 -26.5 63.5 -26.5 l38 0 l0 181 q0 29 20.5 49.5 q20.5 20.5 49.5 20.5 q29 0 49.5 -20.5 q20.5 -20.5 20.5 -49.5 l0 -181 l361 0 l0 182 q0 29 20.5 49.5 q20.5 20.5 49.5 20.5 q29 0 49.5 -20.5 q20.5 -20.5 20.5 -49.5 l0 -182 l37 0 ZM315 -9 q0 -23 -15.5 -38.5 q-15.5 -15.5 -37.5 -15.5 q-22 0 -38 15.5 q-16 15.5 -16 38.5 l0 176 q0 22 16 38 q16 16 38 16 q22 0 37.5 -16 q15.5 -16 15.5 -38 l0 -176 ZM818 -9 q0 -23 -15.5 -38.5 q-15.5 -15.5 -38.5 -15.5 q-22 0 -37.5 15.5 q-15.5 15.5 -15.5 38.5 l0 176 q0 22 15.5 38 q15.5 16 37.5 16 q23 0 38.5 -16 q15.5 -16 15.5 -38 l0 -176 ZM960 329 l0 412 q0 37 -26.5 63.5 q-26.5 26.5 -63.5 26.5 l-716 0 q-37 0 -63.5 -26.5 q-26.5 -26.5 -26.5 -63.5 l0 -412 l52 0 l0 358 q0 38 26 64 q26 26 63 26 l613 0 q37 0 63.5 -26 q26.5 -26 26.5 -64 l0 -358 l52 0 ZM537 589 q8 40 37 62 q29 22 76 22 q113 -4 117 -87 q0 -50 -57 -69 q45 -20 45 -58 q-4 -79 -105 -82 q-83 1 -106 78 l66 -1 q4 -11 6.5 -15.5 q2.5 -4.5 10.5 -8.5 q8 -4 21 -4 q15 0 24.5 8.5 q9.5 8.5 9.5 22.5 q0 21 -9.5 31 q-9.5 10 -34.5 11 l-10 0 l0 44 l22 0 q42 1 42 41 q0 22 -11 34 q-11 12 -31 12 q-33 0 -42 -41 l-71 0 ZM366 607 q14 -16 21.5 -21.5 q7.5 -5.5 31.5 -19.5 q77 -48 73 -105 q-7 -80 -106 -84 q-49 0 -82.5 23 q-33.5 23 -36.5 71 l72 0 q0 -35 41 -36 q34 0 34 27 q0 32 -57 70 q-56 36 -95 97 l0 40 l227 0 l0 -62 l-123 0 Z"></path></symbol><symbol id="rss" viewBox="0 -212 1024 1024"><path d="M329 629 q0 -46 -32 -78 q-32 -32 -77.5 -32 q-45.5 0 -77.5 32 q-32 32 -32 78 q0 46 32 78 q32 32 77.5 32 q45.5 0 77.5 -32 q32 -32 32 -78 ZM622 699 q-8 -91 -46.5 -174.5 q-38.5 -83.5 -103.5 -148.5 q-65 -65 -148.5 -103.5 q-83.5 -38.5 -174.5 -45.5 l-3 0 q-15 0 -24 9 q-12 11 -12 27 l0 77 q0 15 9.5 25 q9.5 10 23.5 11 q131 13 223.5 106 q92.5 93 105.5 224 q1 14 11.5 23.5 q10.5 9.5 24.5 9.5 l77 0 q17 0 27 -12 q11 -12 10 -28 ZM914 700 q-7 -149 -68.5 -286 q-61.5 -137 -167.5 -243 q-107 -107 -243.5 -168 q-136.5 -61 -286.5 -69 l-2 0 q-15 0 -25 10 q-11 11 -11 27 l0 81 q0 15 10 25.5 q10 10.5 24 10.5 q123 8 233.5 59 q110.5 51 192 132 q81.5 81 132.5 192 q51 111 57 233 q1 15 11.5 25 q10.5 10 25.5 10 l82 0 q16 0 26 -12 q11 -11 10 -27 Z"></path></symbol><symbol id="price-tags" viewBox="0 -212 1024 1024"><path d="M256 140 q0 30 -21.5 51.5 q-21.5 21.5 -51.5 21.5 q-30 0 -51.5 -21.5 q-21.5 -21.5 -21.5 -51.5 q0 -30 21.5 -51.5 q21.5 -21.5 51.5 -21.5 q30 0 51.5 21.5 q21.5 21.5 21.5 51.5 ZM866 469 q0 -30 -21 -52 l-409 -408 q-22 -22 -58.5 -37 q-36.5 -15 -66.5 -15 l-238 0 q-30 0 -51.5 22 q-21.5 22 -21.5 51 l0 238 q0 30 15 66.5 q15 36.5 37 58.5 l409 409 q21 21 51 21 q30 0 52 -21 l281 -281 q21 -22 21 -52 Z"></path></symbol><symbol id="quo-left" viewBox="0 -212 1024 1024"><path d="M826 322 q53 0 90.5 37.5 q37.5 37.5 37.5 90.5 l0 128 q0 53 -37.5 90.5 q-37.5 37.5 -90.5 37.5 l-128 0 q-53 0 -90.5 -37.5 q-37.5 -37.5 -37.5 -90.5 l0 -256 q0 -87 43 -160.5 q43 -73.5 116.5 -116.5 q73.5 -43 160.5 -43 q27 0 45.5 19 q18.5 19 18.5 45.5 q0 26.5 -18.5 45 q-18.5 18.5 -45.5 18.5 q-79 0 -135.5 56.5 q-56.5 56.5 -56.5 135.5 l128 0 ZM378 130 q-79 0 -135.5 56.5 q-56.5 56.5 -56.5 135.5 l128 0 q53 0 90.5 37.5 q37.5 37.5 37.5 90.5 l0 128 q0 53 -37.5 90.5 q-37.5 37.5 -90.5 37.5 l-128 0 q-53 0 -90.5 -37.5 q-37.5 -37.5 -37.5 -90.5 l0 -256 q0 -87 43 -160.5 q43 -73.5 117 -116.5 q74 -43 160 -43 q27 0 45.5 19 q18.5 19 18.5 45.5 q0 26.5 -18.5 45 q-18.5 18.5 -45.5 18.5 Z"></path></symbol><symbol id="quo-right" viewBox="0 -212 1024 1024"><path d="M352 32 q53 0 90.5 37.5 q37.5 37.5 37.5 90.5 l0 256 q0 133 -93.5 226.5 q-93.5 93.5 -226.5 93.5 q-27 0 -45.5 -18.5 q-18.5 -18.5 -18.5 -45.5 q0 -27 18.5 -45.5 q18.5 -18.5 45.5 -18.5 q80 0 136 -56.5 q56 -56.5 56 -135.5 l-128 0 q-53 0 -90.5 -37.5 q-37.5 -37.5 -37.5 -90.5 l0 -128 q0 -53 37.5 -90.5 q37.5 -37.5 90.5 -37.5 l128 0 ZM864 32 q53 0 90.5 37.5 q37.5 37.5 37.5 90.5 l0 256 q0 133 -93.5 226.5 q-93.5 93.5 -226.5 93.5 q-27 0 -45.5 -18.5 q-18.5 -18.5 -18.5 -45.5 q0 -27 18.5 -45.5 q18.5 -18.5 45.5 -18.5 q79 0 135.5 -56.5 q56.5 -56.5 56.5 -135.5 l-128 0 q-53 0 -90.5 -37.5 q-37.5 -37.5 -37.5 -90.5 l0 -128 q0 -53 37.5 -90.5 q37.5 -37.5 90.5 -37.5 l128 0 Z"></path></symbol><symbol id="back1" viewBox="0 -212 1024 1024"><path d="M94 242 q-9 -4 -14 -9 q-18 -15 -17 -36 q-1 -22 17 -37 q5 -4 14 -8 l131 -112 q8 -10 20 -17 l9 -8 q17 -14 41 -14 q24 0 41 14 q26 21 14 51 q3 10 3 19 l0 54 l333 0 q114 0 194.5 67.5 q80.5 67.5 80.5 163.5 q0 67 -41.5 122.5 q-41.5 55.5 -110.5 84.5 q-8 18 -29 18 q-12 0 -21 -8 q-9 -8 -9 -19 q0 -6 4 -12 l-5 -4 q47 -18 76.5 -56.5 q29.5 -38.5 29.5 -86.5 q0 -64 -50 -109.5 q-50 -45.5 -121 -45.5 l-331 0 l0 55 q0 9 -3 20 q10 28 -14 49 q-17 14 -41 14 q-24 0 -41 -14 l-7 -6 q-15 -8 -25 -21 l-128 -109 ZM204 197 l4 3 l0 -7 l-4 4 Z"></path></symbol><symbol id="github" viewBox="0 -212 1024 1024"><path d="M1 396 q0 -104 40.5 -198.5 q40.5 -94.5 109 -163 q68.5 -68.5 163 -108.5 q94.5 -40 198.5 -40 q104 0 198.5 40.5 q94.5 40.5 163 108.5 q68.5 68 109 162.5 q40.5 94.5 40.5 198.5 q0 167 -97 300 q-97 133 -251 185 q-8 -6 -11 -3 q-3 3 -6 -15 l0 -131 q0 -62 -44 -104 q116 -21 172.5 -86 q56.5 -65 56.5 -157 q0 -88 -56 -152 q20 -63 -6 -134 q-28 -3 -61.5 9 q-33.5 12 -49 21.5 q-15.5 9.5 -28.5 19.5 q-59 -16 -129 -16 q-71 0 -129 16 q-11 -9 -25 -18.5 q-14 -9.5 -50 -23 q-36 -13.5 -66 -10.5 q-27 71 -5 137 q-55 63 -55 150 q-1 93 55.5 158 q56.5 65 171.5 85 q-30 30 -40 70 q-84 21 -118 -30 q-63 -92 -113 -66 q-7 7 2 14.5 q9 7.5 27 20.5 q18 13 26 27 q2 3 6 15 q4 12 9 23.5 q5 11.5 17.5 25.5 q12.5 14 28.5 23.5 q16 9.5 45 14 q29 4.5 66 0.5 l0 100 q0 2 -0.5 5.5 q-0.5 3.5 -2 5 q-1.5 1.5 -4 3 q-2.5 1.5 -6.5 1.5 q-4 0 -10 -2 q-151 -52 -246.5 -184.5 q-95.5 -132.5 -95.5 -297.5 Z"></path></symbol><symbol id="film" viewBox="0 -212 1024 1024"><path d="M1024 -84 l0 768 l-1024 0 l0 -768 l1024 0 ZM192 492 l-128 0 l0 128 l128 0 l0 -128 ZM192 236 l-128 0 l0 128 l128 0 l0 -128 ZM192 -20 l-128 0 l0 128 l128 0 l0 -128 ZM768 -20 l-512 0 l0 640 l512 0 l0 -640 ZM960 492 l-128 0 l0 128 l128 0 l0 -128 ZM960 236 l-128 0 l0 128 l128 0 l0 -128 ZM960 -20 l-128 0 l0 128 l128 0 l0 -128 ZM640 300 l-256 192 l0 -384 l256 192 Z"></path></symbol><symbol id="weixin" viewBox="0 -212 1024 1024"><path d="M331 135 q0 24 -14 38 q-14 14 -38 14 q-24 0 -43 -14.5 q-19 -14.5 -19 -37.5 q0 -22 19 -37 q19 -15 43 -15 q24 0 38 14.5 q14 14.5 14 37.5 ZM756 425 q0 17 -14.5 29.5 q-14.5 12.5 -37.5 12.5 q-15 0 -28 -13 q-13 -13 -13 -29 q0 -15 13 -28 q13 -13 28 -13 q23 0 37.5 12.5 q14.5 12.5 14.5 28.5 ZM621 135 q0 24 -14 38 q-14 14 -37 14 q-25 0 -44 -14.5 q-19 -14.5 -19 -37.5 q0 -22 19 -37 q19 -15 44 -15 q23 0 37 14.5 q14 14.5 14 37.5 ZM984 425 q0 17 -15 29.5 q-15 12.5 -37 12.5 q-15 0 -28 -13 q-13 -13 -13 -29 q0 -15 13 -28 q13 -13 28 -13 q22 0 37 12.5 q15 12.5 15 28.5 ZM832 198 q-18 -82 -78 -148.5 q-60 -66.5 -149.5 -104.5 q-89.5 -38 -190.5 -38 q-112 0 -207.5 47 q-95.5 47 -151 128 q-55.5 81 -55.5 177 q0 164 166 280 l-41 125 l144 -73 q5 2 28.5 6.5 q23.5 4.5 31.5 6 q8 1.5 25.5 4 q17.5 2.5 31 3.5 q13.5 1 28.5 1 q19 0 39 -2 q-13 -42 -13 -87 q0 -89 46.5 -164 q46.5 -75 127.5 -119 q81 -44 178 -44 q22 0 40 2 ZM1170 519 q0 -81 -48.5 -150.5 q-48.5 -69.5 -130 -110 q-81.5 -40.5 -173.5 -40.5 q-96 0 -177.5 40.5 q-81.5 40.5 -128 109.5 q-46.5 69 -46.5 151 q0 82 47 151 q47 69 128 109 q81 40 177 40 q39 0 125 -21 l114 63 l-32 -104 q67 -50 106 -110.5 q39 -60.5 39 -127.5 Z"></path></symbol><symbol id="qzone" viewBox="0 -212 1024 1024"><path d="M813 523.08 q34 -26 94 -75 q218 -175 199 -199 q-28 -8 -19 -10.5 q9 -2.5 -38 -11 q-47 -8.5 -52.5 -11 q-5.5 -2.5 -59 -10 q-53.5 -7.5 -62 -9.5 q-8.5 -2 -106.5 -14 q-25 -3 -33 -4 q-8 -1 -12 -1 q0 -4 -30.5 -77 q-30.5 -73 -72.5 -147 q-42 -74 -66 -69 q-16 4 -38.5 39 q-22.5 35 -41.5 75.5 q-19 40.5 -40.5 92.5 q-21.5 52 -28.5 72.5 q-7 20.5 -12 32.5 q-17 0 -99 6 q-82 6 -185 23 q-103 17 -109 40 q-3 9 4 23 q7 14 20 30.5 q13 16.5 32.5 36.5 q19.5 20 39 38.5 q19.5 18.5 42 38.5 q22.5 20 39.5 34.5 q17 14.5 34.5 29 q17.5 14.5 23 19 q5.5 4.5 9.5 7.5 q-1 0 -10 34.5 q-9 34.5 -19.5 85 q-10.5 50.5 -18 103 q-7.5 52.5 -3 94 q4.5 41.5 23.5 50.5 q7 4 23 -0.5 q16 -4.5 35.5 -14 q19.5 -9.5 44.5 -24 q25 -14.5 49 -29 q24 -14.5 50.5 -32.5 q26.5 -18 45.5 -31 q19 -13 38.5 -27 q19.5 -14 26 -18.5 q6.5 -4.5 9.5 -7.5 q0 1 30 23 q30 22 76.5 52.5 q46.5 30.5 95.5 59.5 q49 29 92.5 45 q43.5 16 63.5 7 q30 -14 -53 -272 q-368 11 -550 -22 q5 -22 359 -259 l-375 -52 l25 -5 q26 -5 76 -10 q50 -5 113 -7.5 q63 -2.5 150.5 3 q87.5 5.5 173.5 19.5 q2 4 -22.5 24 q-24.5 20 -62.5 48.5 q-38 28.5 -82.5 62 q-44.5 33.5 -83 62 q-38.5 28.5 -63.5 50 q-25 21.5 -24 26.5 q152 27 362 47 q-16 -49 -28 -85 ZM841 608.08 q1 2 2.5 6 q1.5 4 1.5 7 q64 -2 106 -4 l-110 -9 Z"></path></symbol><symbol id="category" viewBox="0 -212 1024 1024"><path d="M970 803 q20 0 27 -18 q2 -5 2 -11.5 q0 -6.5 -2 -12.5 q-7 -18 -27 -18 l-941 0 q-13 0 -21 9 q-8 8 -8 21 q0 13 8 22 q8 8 21 8 l941 0 ZM704 575 q20 0 27 -18 q2 -6 2 -12 q0 -6 -2 -12 q-7 -18 -27 -18 l-675 0 q-13 0 -21 9 q-8 8 -8 21 q0 13 8 22 q9 8 21 8 l675 0 ZM27 273 q-12 0 -19 9 q-8 9 -8 21 q0 12 7 20 l1 1 q8 9 19 9 l416 0 q11 0 19 -9 q7 -9 7 -21 q0 -12 -7 -21 q-8 -9 -19 -9 l-416 0 ZM27 54 q-12 0 -19 9 q-8 9 -8 21 q0 12 7 20 q8 10 20 10 l416 0 q11 0 19 -10 q7 -8 7 -20 q0 -12 -7 -21 q-8 -9 -19 -9 l-416 0 ZM698 21 q14 -3 29 -3 q71 0 121 50.5 q50 50.5 50 121.5 q0 21 -5 41 l55 0 q4 -20 4 -41 q0 -93 -66 -159 q-66 -66 -159 -66 q-15 0 -29 1 l0 55 ZM859 372 q14 -10 27 -23 q49 -49 62 -118 l-55 0 q-11 46 -45 80 q-50 50 -121 50 q-71 0 -121.5 -50 q-50.5 -50 -50.5 -121 q0 -71 51 -121 q38 -39 92 -48 l0 -55 q-76 10 -130 65 q-66 66 -66 159 q0 93 65.5 159 q65.5 66 159.5 66 q36 0 70 -11 l-1 1 l10 -4 l162 278 q4 7 10.5 11 q6.5 4 14.5 4 q13 0 22 -9 q9 -9 9 -21 q0 -4 -1 -8 q-1 -3 -3 -7 l-161 -277 Z"></path></symbol><symbol id="douban" viewBox="0 -212 1024 1024"><path d="M823 -70 q56 0 96 40 q40 40 40 96 l0 621 q0 56 -40 95.5 q-40 39.5 -96 39.5 l-621 0 q-56 0 -95.5 -39.5 q-39.5 -39.5 -39.5 -95.5 l0 -621 q0 -56 39.5 -96 q39.5 -40 95.5 -40 l621 0 ZM230 134 l587 0 l0 -71 l-587 0 l0 71 ZM277 181 l0 281 l493 0 l0 -281 l-493 0 ZM841 603 l-181 0 q20 -22 60 -113 l-71 -26 q-19 53 -64 139 l-124 0 q-44 -102 -69 -139 l-65 26 q2 3 17.5 26 q15.5 23 20 30 q4.5 7 13 24 q8.5 17 14.5 33 l-185 0 l0 71 l634 0 l0 -71 ZM348 392 l352 0 l0 -141 l-352 0 l0 141 Z"></path></symbol><symbol id="roundleftfill" viewBox="0 -212 1024 1024"><path d="M512 -64 q185 0 316.5 131.5 q131.5 131.5 131.5 316.5 q0 185 -131.5 316.5 q-131.5 131.5 -316.5 131.5 q-185 0 -316.5 -131.5 q-131.5 -131.5 -131.5 -316.5 q0 -185 131.5 -316.5 q131.5 -131.5 316.5 -131.5 ZM430 383 l137 -136 q10 -9 10 -22.5 q0 -13.5 -9.5 -23 q-9.5 -9.5 -22.5 -9.5 q-13 0 -23 10 l-160 158 q-15 15 -7 35 q1 1 1 2 q3 5 6 8 l159 160 q9 9 22.5 9 q13.5 0 23 -9 q9.5 -9 9.5 -22.5 q0 -13.5 -10 -22.5 l-136 -137 Z"></path></symbol><symbol id="tuding" viewBox="0 -212 1024 1024"><path d="M949 774.68 q10 10 10 23.5 q0 13.5 -9.5 23 q-9.5 9.5 -23 9.5 q-13.5 0 -23.5 -10 l-223 -223 l-206 207 q-11 11 -26 10 q-15 -1 -25 -13 q-58 -72 -74.5 -163.5 q-16.5 -91.5 12.5 -175.5 l-170 -215 q-61 2 -111 -31 q-13 -8 -14.5 -24 q-1.5 -16 9.5 -27 l219 -219 q11 -11 27 -9.5 q16 1.5 25 14.5 q32 50 30 110 l215 170 q84 -28 175 -12 q91 16 163 74 q12 10 13 25 q1 15 -10 26 l-206 207 l223 223 Z"></path></symbol><symbol id="zhihu" viewBox="0 -212 1024 1024"><path d="M504 369.33 q15 0 26.5 11 q11.5 11 11.5 27 q0 16 -11.5 27 q-11.5 11 -26.5 11 l-148 0 q-3 55 -14 104 l3 -3 q12 -10 28 -8.5 q16 1.5 26 13.5 l121 143 q10 12 8.5 28 q-1.5 16 -13.5 26 q-11 9 -24 9 q-18 0 -30 -14 l-121 -143 q-5 -7 -8 -15 q-52 172 -208 250 q-8 4 -18 4 q-23 0 -34 -21 q-7 -14 -2 -29 q5 -15 19 -22 q176 -88 190 -322 l-173 0 q-16 0 -27 -11 q-11 -11 -11 -27 q0 -16 11 -27 q11 -11 27 -11 l175 0 l0 -224 l-70 0 q-31 58 -88 110 q-11 10 -26 10 q-17 0 -28 -12 q-11 -12 -10.5 -27.5 q0.5 -15.5 12.5 -26.5 q32 -30 53 -58.5 q21 -28.5 30.5 -58 q9.5 -29.5 12.5 -46.5 q3 -17 6 -46 q1 -15 2 -21 q1 -16 13.5 -26 q12.5 -10 28.5 -8 q16 2 25.5 14 q9.5 12 8.5 28 q-1 5 -2 16 l0 3 q-4 45 -10 73 l248 0 q16 0 27 11.5 q11 11.5 11 27 q0 15.5 -11 26.5 q-11 11 -27 11 l-130 0 l0 224 l147 0 ZM922 62.33 q16 0 27.5 11 q11.5 11 11.5 27 l0 553 q0 15 -11.5 26.5 q-11.5 11.5 -27.5 11.5 l-88 0 l-120 119 l-1 1 q-10 8 -24 8 q-8 0 -15 -3 q-21 -9 -23 -31 l-5 -94 l-23 0 q-16 0 -27 -11.5 q-11 -11.5 -11 -26.5 l0 -553 q0 -16 11 -27 q11 -11 27 -11 l299 0 ZM681 615.33 q15 0 26 9.5 q11 9.5 12 24.5 l3 51 l73 -76 l1 -1 q10 -8 24 -8 l64 0 l0 -477 l-222 0 l0 477 l19 0 Z"></path></symbol><symbol id="linkedin" viewBox="0 -212 1024 1024"><path d="M259 193 l-191 0 l0 637 l191 0 l0 -637 ZM958 470 q0 -121 -62 -192 q-53 -65 -158 -65 q-123 0 -189 107 l-2 0 l0 -127 l-161 0 q3 65 0 637 l192 0 l0 -397 q21 -73 95 -73 q93 0 93 132 l0 338 l192 0 l0 -360 ZM262 36 q0 -40 -29 -68 q-29 -28 -69.5 -28 q-40.5 0 -69.5 28 q-29 28 -29 68 q0 40 29 67.5 q29 27.5 69.5 27.5 q40.5 0 69.5 -27.5 q29 -27.5 29 -67.5 Z"></path></symbol><symbol id="google" viewBox="0 -212 1024 1024"><path d="M568 4 l-68 0 q35 21 54.5 60 q19.5 39 19.5 87 q0 79 -77 139 q-32 25 -42 40.5 q-10 15.5 -10 37.5 q0 23 70 75 q4 3 6 5 q61 46 81 83 q20 37 20 98 q0 78 -77 137 q-77 59 -201 59 q-117 0 -197.5 -44 q-80.5 -44 -80.5 -116 q0 -78 74 -140.5 q74 -62.5 183 -62.5 q8 0 23.5 -0.5 q15.5 -0.5 23.5 -0.5 q-20 -19 -29 -33 q-9 -14 -9 -35 q0 -24 14 -50 q-15 1 -25 1 q-90 0 -143 -56 q-53 -56 -53 -140 q0 -81 72 -142.5 q72 -61.5 169 -61.5 l260 0 l-58 60 ZM538 612 q-3 -11 -9 -21.5 q-6 -10.5 -12 -17.5 q-6 -7 -19.5 -18 q-13.5 -11 -20.5 -16 q-7 -5 -26 -18 q-19 -13 -27 -18 q-32 -10 -67 -11 q-78 -1 -135.5 42 q-57.5 43 -57.5 102 q0 60 51.5 102.5 q51.5 42.5 128.5 42.5 q103 0 150 -38.5 q47 -38.5 47 -102.5 q0 -14 -3 -28 ZM371 304 q53 2 80 -39 q27 -41 18 -110 q-9 -70 -49.5 -119 q-40.5 -49 -92.5 -50 q-52 -2 -83 44.5 q-31 46.5 -21 115.5 q8 68 51 112 q43 44 97 46 ZM958 63 l0 60 l-120 0 l0 120 l-59 0 l0 -120 l-120 0 l0 -60 l120 0 l0 -119 l59 0 l0 119 l120 0 Z"></path></symbol><symbol id="plane" viewBox="0 -212 1024 1024"><path d="M496 -85.11 q4 -11 16 -12 q12 0 16 11 l361 929 q1 3 1 7 q0 6 -3 10 q-6 8 -16 7 l-327 -30 l-32 -761 l-32 761 l-327 30 q-10 0 -15.5 -7.5 q-5.5 -7.5 -2.5 -15.5 l361 -929 Z"></path></symbol><symbol id="bilibili" viewBox="0 -212 1024 1024"><path d="M275 -19.52 q12 -12 21 -15.5 q9 -3.5 25.5 5.5 q16.5 9 36.5 27 q20 18 60 57 q59 58 70 63 q11 4 90 4 l81 1 l70 -69 q58 -56 73 -72 q5 -5 18 -10.5 q13 -5.5 21 -5.5 q12 0 28.5 16.5 q16.5 16.5 16.5 40.5 q0 15 -4 22.5 q-4 7.5 -18 21.5 q-28 25 -21 40.5 q7 15.5 46 15.5 q26 0 61 15 q35 15 57 37 q25 23 41 58 l17 35 l0 446 l-18 36 q-16 36 -35.5 55 q-19.5 19 -56.5 37 l-40 19 l-702 -4 l-34 -18 q-34 -19 -48 -33.5 q-14 -14.5 -32 -48.5 l-20 -39 l0 -453 l20 -39 q20 -39 37 -54 q17 -17 58 -33 q41 -16 66 -16 q21 0 33 -7 q12 -7 12 -19 q0 -5 -11.5 -17.5 q-11.5 -12.5 -17 -12.5 q-5.5 0 -14 -26 q-8.5 -26 -5.5 -35 q5 -12 18 -25 ZM904 233.48 q-33 -1 -338.5 -1.5 q-305.5 -0.5 -317.5 0.5 q-21 2 -40 24 l-20 22 l0 426 l43 43 l315 1 q315 1 340 0 q42 -2 63 -40 q7 -13 8 -48.5 q1 -35.5 0 -179.5 l-1 -209 l-21 -19 q-20 -18 -31 -19 ZM347 395.48 q20 -22 36.5 -22.5 q16.5 -0.5 36.5 19.5 q14 14 16.5 22.5 q2.5 8.5 2.5 42.5 q0 31 -2.5 42 q-2.5 11 -10.5 20 q-41 49 -81 2 q-13 -14 -15.5 -23 q-2.5 -9 -2.5 -38 q0 -31 3 -40 q3 -9 17 -25 ZM726 392.48 q19 -19 35.5 -19 q16.5 0 34.5 19 q13 13 16 22.5 q3 9.5 5 34.5 q4 65 -36 88 q-16 9 -27 6 q-11 -3 -29 -20 q-13 -12 -15.5 -21 q-2.5 -9 -2.5 -44 q0 -34 2.5 -43 q2.5 -9 16.5 -23 Z"></path></symbol><symbol id="psp" viewBox="0 -212 1024 1024"><path d="M263 132.5 q-73 0 -124 51.5 q-51 51.5 -51 123.5 q0 30 9 57 q-39 140 -33 305 q21 22 46.5 33.5 q25.5 11.5 41.5 14.5 q16 3 46 5 q80 -98 152 -255 q25 -9 42 -36 l239 0 q17 28 41 37 q72 158 151 254 q30 -2 46.5 -5 q16.5 -3 41.5 -14.5 q25 -11.5 46 -33.5 q7 -163 -32 -303 q9 -26 9 -55 q0 -72 -51.5 -123.5 q-51.5 -51.5 -123.5 -51.5 q-42 0 -78 18 q-36 18 -60 50 l-217 0 q-25 -33 -62 -52.5 q-37 -19.5 -79 -19.5 ZM498 294.5 l0 39 l-65 0 l0 -39 l65 0 ZM776 326.5 q14 -3 26.5 4.5 q12.5 7.5 15.5 22 q3 14.5 -5 26.5 q-8 12 -22 15 q-14 3 -26.5 -4.5 q-12.5 -7.5 -15.5 -22 q-3 -14.5 5 -26.5 q8 -12 22 -15 ZM694 270.5 q14 -3 26.5 4.5 q12.5 7.5 15.5 22 q3 14.5 -5 26.5 q-8 12 -22 15.5 q-14 3.5 -26.5 -4.5 q-12.5 -8 -15.5 -22.5 q-3 -14.5 5 -26.5 q8 -12 22 -15 ZM744 190.5 q14 -3 26.5 5 q12.5 8 15.5 22 q3 14 -5 26 q-8 12 -22 15.5 q-14 3.5 -26.5 -4.5 q-12.5 -8 -15.5 -22 q-3 -14 5 -26.5 q8 -12.5 22 -15.5 ZM826 238.5 q14 -3 26.5 4.5 q12.5 7.5 15.5 22 q3 14.5 -5 26.5 q-8 12 -22 15 q-14 3 -26 -4.5 q-12 -7.5 -15.5 -22 q-3.5 -14.5 4.5 -26.5 q8 -12 22 -15 ZM333 355.5 l-45 -59 l58 -46 l-13 105 ZM189 369.5 l59 -46 l46 59 l-105 -13 ZM173 228.5 l42 54 l-54 42 l12 -96 ZM310 211.5 l-53 42 l-42 -54 l95 12 ZM584 294.5 l0 39 l-65 0 l0 -39 l65 0 ZM880 143.5 q-51 -47 -120 -47 q-34 0 -66 13 l0 -51 q100 -42 186 0 l0 85 ZM131 58.5 q86 -43 186 0 l0 51 q-32 -13 -66 -13 q-69 0 -120 47 l0 -85 Z"></path></symbol><symbol id="myGithub" viewBox="0 -212 1024 1024"><path d="M440 803.78 q-39 -1 -64 -27 q-27 -25 -28 -65 l0 -65 q-134 21 -178 -24 q-46 -45 -42 -54 q-25 -55 -48 -75.5 q-23 -20.5 -25 -19.5 q-39 -29 -20 -35 q18 -6 25 -4 q49 7 74 35 q25 27 25 32 q47 71 103 71 q57 0 88 -17 q4 -32 15 -53 q12 -22 26 -34 q-114 -8 -204 -74 q-88 -66 -93 -249 q0 -54 17 -97 q18 -44 49 -78 q-7 -14 -12 -59 q-5 -46 19 -114 q0 -4 43 1 q43 6 137 66 q80 -22 163 -23 q41 1 84 6 q41 5 80 17 q92 -60 136 -65.5 q44 -5.5 43 -1.5 q25 68 19.5 113.5 q-5.5 45.5 -12.5 59.5 q31 34 49 78 q18 43 18 97 q-5 183 -95 249 q-89 65 -203 73 q18 15 30 45 q14 31 14 76 l0 95 l0 28 q-1 40 -28 65 q-26 26 -65 27 l-140 0 Z"></path></symbol></defs></svg>